<svg width="32" height="32" viewBox="0 0 32 32" fill="none" xmlns="http://www.w3.org/2000/svg">
<path d="M29.074 13.3885H28V13.3332H16V18.6665H23.5353C22.436 21.7712 19.482 23.9998 16 23.9998C11.582 23.9998 7.99996 20.4178 7.99996 15.9998C7.99996 11.5818 11.582 7.99984 16 7.99984C18.0393 7.99984 19.8946 8.76917 21.3073 10.0258L25.0786 6.2545C22.6973 4.03517 19.512 2.6665 16 2.6665C8.63663 2.6665 2.66663 8.6365 2.66663 15.9998C2.66663 23.3632 8.63663 29.3332 16 29.3332C23.3633 29.3332 29.3333 23.3632 29.3333 15.9998C29.3333 15.1058 29.2413 14.2332 29.074 13.3885Z" fill="#FFC107"/>
<path d="M4.20398 9.79384L8.58465 13.0065C9.76998 10.0718 12.6406 7.99984 16 7.99984C18.0393 7.99984 19.8946 8.76917 21.3073 10.0258L25.0786 6.2545C22.6973 4.03517 19.512 2.6665 16 2.6665C10.8786 2.6665 6.43731 5.55784 4.20398 9.79384Z" fill="#FF3D00"/>
<path d="M16 29.3333C19.444 29.3333 22.5733 28.0153 24.9393 25.872L20.8127 22.38C19.429 23.4322 17.7383 24.0013 16 24C12.532 24 9.58734 21.7886 8.478 18.7026L4.13 22.0526C6.33667 26.3706 10.818 29.3333 16 29.3333Z" fill="#4CAF50"/>
<path d="M29.074 13.3888H28V13.3335H16V18.6668H23.5353C23.0095 20.1444 22.0622 21.4356 20.8107 22.3808L20.8127 22.3795L24.9393 25.8715C24.6473 26.1368 29.3333 22.6668 29.3333 16.0002C29.3333 15.1062 29.2413 14.2335 29.074 13.3888Z" fill="#1976D2"/>
</svg>
